<svg version="1.1" id="Layer_1" xmlns="http://www.w3.org/2000/svg" xmlns:xlink="http://www.w3.org/1999/xlink" x="0px" y="0px"
	 width="100%" viewBox="0 0 128 128" enable-background="new 0 0 128 128" xml:space="preserve">
<path fill="#615D6C" opacity="1.000000" stroke="none" 
	d="
M129.000000,54.000000 
	C129.000000,61.020947 129.000000,68.041893 128.664276,75.368286 
	C125.113197,77.448631 122.079758,80.016418 118.638313,80.806053 
	C113.894775,81.894463 111.311623,86.248856 113.738342,90.522362 
	C115.084763,92.893417 116.667770,95.498093 116.856834,98.091339 
	C117.495552,106.851700 111.069557,111.412750 104.865341,115.416603 
	C98.772972,119.348289 93.185303,116.558151 88.382828,112.183945 
	C83.815201,113.412361 79.951401,114.912598 80.745361,120.942619 
	C80.924866,122.305878 78.970932,123.935341 78.035942,125.464813 
	C77.326920,126.624649 76.676498,127.820290 76.000000,129.000000 
	C68.979050,129.000000 61.958103,129.000000 54.632240,128.664520 
	C52.553387,125.277702 49.864784,122.410202 49.206402,119.134644 
	C48.034355,113.303505 44.082329,111.280151 38.801922,114.501694 
	C36.761391,115.746597 34.260616,116.763222 31.915798,116.889977 
	C22.930201,117.375725 18.319452,110.858299 14.354757,104.425903 
	C10.685263,98.472443 13.600572,93.031815 17.816607,88.395004 
	C16.601320,83.805878 15.092117,79.955872 9.061464,80.746414 
	C7.696373,80.925354 6.066316,78.971947 4.535861,78.036667 
	C3.375655,77.327644 2.179922,76.676758 1.000000,76.000000 
	C1.000000,68.979050 1.000000,61.958103 1.335478,54.632248 
	C5.051006,52.550503 8.441612,50.793339 11.806116,48.987545 
	C13.229840,48.223408 15.319611,47.665646 15.832102,46.468472 
	C16.712830,44.411087 18.900360,42.537457 16.249094,39.486759 
	C11.171815,33.644562 11.889455,26.855392 17.208277,21.305134 
	C18.586550,19.866888 19.996048,18.456194 21.436899,17.080711 
	C26.560461,12.189602 31.996634,11.653347 37.989182,15.416313 
	C43.974846,19.174957 48.023560,17.129976 49.108742,10.081249 
	C49.388645,8.263157 50.707985,6.588079 51.630978,4.891442 
	C52.355824,3.559027 53.205677,2.294620 54.000000,1.000000 
	C61.020947,1.000000 68.041893,1.000000 75.367973,1.335561 
	C77.443771,4.554122 80.157196,7.245663 80.789635,10.359818 
	C82.122864,16.924707 85.639320,18.763817 91.614372,15.262654 
	C93.535469,14.136962 95.852982,13.219766 98.039185,13.096748 
	C106.794106,12.604109 111.401527,18.864902 115.395294,25.098196 
	C119.305779,31.201502 116.268387,36.745865 112.204094,41.721733 
	C113.422531,46.177185 114.915916,50.051834 120.944977,49.255894 
	C122.307457,49.076023 123.936920,51.031967 125.466469,51.967167 
	C126.625381,52.675751 127.820816,53.324581 129.000000,54.000000 
M63.639763,37.999660 
	C52.422348,38.429916 44.440971,44.111385 40.123024,54.096523 
	C35.831631,64.020248 36.914211,73.897499 44.031799,82.425621 
	C51.023857,90.803329 60.363289,93.736000 70.813835,91.544434 
	C85.220657,88.523193 93.880455,75.651031 91.926872,60.833633 
	C90.284828,48.379158 78.628922,37.083248 63.639763,37.999660 
z"/>
<path fill="#000000" opacity="1.000000" stroke="none" 
	d="
M53.531342,1.000000 
	C53.205677,2.294620 52.355824,3.559027 51.630978,4.891442 
	C50.707985,6.588079 49.388645,8.263157 49.108742,10.081249 
	C48.023560,17.129976 43.974846,19.174957 37.989182,15.416313 
	C31.996634,11.653347 26.560461,12.189602 21.436899,17.080711 
	C19.996048,18.456194 18.586550,19.866888 17.208277,21.305134 
	C11.889455,26.855392 11.171815,33.644562 16.249094,39.486759 
	C18.900360,42.537457 16.712830,44.411087 15.832102,46.468472 
	C15.319611,47.665646 13.229840,48.223408 11.806116,48.987545 
	C8.441612,50.793339 5.051006,52.550503 1.335478,54.163666 
	C1.000000,36.406563 1.000000,18.813124 1.000000,1.000000 
	C18.353609,1.000000 35.708145,1.000000 53.531342,1.000000 
z"/>
<path fill="#000000" opacity="1.000000" stroke="none" 
	d="
M129.000000,53.531342 
	C127.820816,53.324581 126.625381,52.675751 125.466469,51.967167 
	C123.936920,51.031967 122.307457,49.076023 120.944977,49.255894 
	C114.915916,50.051834 113.422531,46.177185 112.204094,41.721733 
	C116.268387,36.745865 119.305779,31.201502 115.395294,25.098196 
	C111.401527,18.864902 106.794106,12.604109 98.039185,13.096748 
	C95.852982,13.219766 93.535469,14.136962 91.614372,15.262654 
	C85.639320,18.763817 82.122864,16.924707 80.789635,10.359818 
	C80.157196,7.245663 77.443771,4.554122 75.836548,1.335561 
	C93.593437,1.000000 111.186867,1.000000 129.000000,1.000000 
	C129.000000,18.353609 129.000000,35.708145 129.000000,53.531342 
z"/>
<path fill="#000000" opacity="1.000000" stroke="none" 
	d="
M76.468658,129.000000 
	C76.676498,127.820290 77.326920,126.624649 78.035942,125.464813 
	C78.970932,123.935341 80.924866,122.305878 80.745361,120.942619 
	C79.951401,114.912598 83.815201,113.412361 88.382828,112.183945 
	C93.185303,116.558151 98.772972,119.348289 104.865341,115.416603 
	C111.069557,111.412750 117.495552,106.851700 116.856834,98.091339 
	C116.667770,95.498093 115.084763,92.893417 113.738342,90.522362 
	C111.311623,86.248856 113.894775,81.894463 118.638313,80.806053 
	C122.079758,80.016418 125.113197,77.448631 128.664276,75.836861 
	C129.000000,93.593437 129.000000,111.186867 129.000000,129.000000 
	C111.646393,129.000000 94.291855,129.000000 76.468658,129.000000 
z"/>
<path fill="#000000" opacity="1.000000" stroke="none" 
	d="
M1.000000,76.468658 
	C2.179922,76.676758 3.375655,77.327644 4.535861,78.036667 
	C6.066316,78.971947 7.696373,80.925354 9.061464,80.746414 
	C15.092117,79.955872 16.601320,83.805878 17.816607,88.395004 
	C13.600572,93.031815 10.685263,98.472443 14.354757,104.425903 
	C18.319452,110.858299 22.930201,117.375725 31.915798,116.889977 
	C34.260616,116.763222 36.761391,115.746597 38.801922,114.501694 
	C44.082329,111.280151 48.034355,113.303505 49.206402,119.134644 
	C49.864784,122.410202 52.553387,125.277702 54.163658,128.664520 
	C36.406567,129.000000 18.813131,129.000000 1.000000,129.000000 
	C1.000000,111.646393 1.000000,94.291855 1.000000,76.468658 
z"/>
<path fill="#000000" opacity="1.000000" stroke="none" 
	d="
M64.093643,37.999443 
	C78.628922,37.083248 90.284828,48.379158 91.926872,60.833633 
	C93.880455,75.651031 85.220657,88.523193 70.813835,91.544434 
	C60.363289,93.736000 51.023857,90.803329 44.031799,82.425621 
	C36.914211,73.897499 35.831631,64.020248 40.123024,54.096523 
	C44.440971,44.111385 52.422348,38.429916 64.093643,37.999443 
z"/>
</svg>